PathFileType	4	(X/Y/Z)	RBDS08\RBDS08runT25.trc
DataRate	CameraRate	NumFrames	NumMarkers	Units	OrigDataRate	OrigDataStartFrame	OrigNumFrames
150.000000	150.000000	4	33	mm	150.000000	1687	4500
Frame#	Time	L.ASIS			L.Heel.Bottom			L.Heel.Lateral			L.Heel.Top			L.Iliac.Crest			L.MT1			L.MT5			L.PSIS			L.Shank.Bottom.Lateral			L.Shank.Bottom.Medial			L.Shank.Top.Lateral			L.Shank.Top.Medial			L.Thigh.Bottom.Lateral			L.Thigh.Bottom.Medial			L.Thigh.Top.Lateral			L.Thigh.Top.Medial			R.ASIS			R.ASY			R.Heel.Bottom			R.Heel.Lateral			R.Heel.Top			R.Iliac.Crest			R.MT1			R.MT5			R.PSIS			R.Shank.Bottom.Lateral			R.Shank.Bottom.Medial			R.Shank.Top.Lateral			R.Shank.Top.Medial			R.Thigh.Bottom.Lateral			R.Thigh.Bottom.Medial			R.Thigh.Top.Lateral			R.Thigh.Top.Medial			
		X1	Y1	Z1	X2	Y2	Z2	X3	Y3	Z3	X4	Y4	Z4	X5	Y5	Z5	X6	Y6	Z6	X7	Y7	Z7	X8	Y8	Z8	X9	Y9	Z9	X10	Y10	Z10	X11	Y11	Z11	X12	Y12	Z12	X13	Y13	Z13	X14	Y14	Z14	X15	Y15	Z15	X16	Y16	Z16	X17	Y17	Z17	X18	Y18	Z18	X19	Y19	Z19	X20	Y20	Z20	X21	Y21	Z21	X22	Y22	Z22	X23	Y23	Z23	X24	Y24	Z24	X25	Y25	Z25	X26	Y26	Z26	X27	Y27	Z27	X28	Y28	Z28	X29	Y29	Z29	X30	Y30	Z30	X31	Y31	Z31	X32	Y32	Z32	X33	Y33	Z33	

1688	11.24666666666667	2092.849932204227	991.0491864706892	897.7356854528086	1687.984239024024	65.21237879387944	965.3218993170083	1725.743390551512	78.11788553462735	924.9072096703103	1709.304268125549	112.2227082903831	972.7851338650516	2038.564781468124	1058.383538769545	877.1369865822784	1908.096523863461	51.07101078678742	1026.272095197053	1878.286674428208	43.38627314038648	918.9087999229848	1931.603484897871	1025.196514334984	986.8952793623341	1814.792831255572	172.306853064501	922.4030923590758	1776.997116970404	195.5843550497032	948.8307106439175	1847.454406865622	243.6517262509654	900.0766171034741	1812.527525935448	270.4050599568001	931.0021432006408	1990.694655613158	614.0046144677999	852.6408361436232	1933.167164172396	611.187695005388	897.396481405902	1975.232232588136	723.4413925972419	843.1492228577007	1924.829107303033	720.9767743893283	891.7319138625377	2116.176559081813	976.5826674134057	1127.033674650469	1967.277072172815	238.6678787083306	1096.952625059248	1798.566277780167	333.3179979866362	1085.445077022506	1831.278578622838	329.8679111037264	1126.471616273584	1842.313407132242	355.6531042622201	1077.426466900489	2064.211899755046	1045.510130636062	1168.930662538622	1952.88085221778	166.6914229543466	1065.855344383995	1933.199761359529	205.6241150602205	1167.489346222198	1941.973595847759	1019.243295416419	1085.212517827544	1963.03441358449	384.2411561519722	1124.909626492784	1947.941428179416	403.7422953085805	1075.816721763205	2024.72096276449	437.7599283121032	1124.744348629302	2010.808141328852	453.4078740981112	1075.249022088507	2220.310340725943	613.7995842648756	1149.594308056154	2168.052119650009	583.211855747179	1108.610294484258	2152.682845042023	698.2039819463566	1173.275084227215	2101.716205416606	667.0012349755627	1137.220010512434	
1689	11.25333333333333	2093.294928865573	994.2360287347433	897.3974901306125	1673.041518260066	71.76196486120195	965.9017369422884	1711.075332925549	83.44333716258716	925.4349865161001	1695.674936494642	118.0905692499679	973.168903089147	2041.000352037111	1062.616625806872	877.2613876483065	1892.193502875158	51.00411435113359	1026.52853776763	1861.70888129243	44.17084080509928	919.3003969385019	1932.435556020233	1029.539743366824	986.5356171720845	1800.491615381741	176.9282431829545	923.1004102723941	1762.857685548393	200.2119819795719	949.7133764662714	1833.409928770919	248.2677070184768	901.0389061666774	1798.590863831508	274.96160388867	932.1367770080072	1981.846583126121	617.8352764876399	854.0486536651414	1924.55238799385	616.8876942180236	899.2518335070483	1969.562402975452	727.6547425450301	844.2010105784633	1919.154964267293	726.9078130093473	892.9969440765209	2116.948160843159	981.88559189542	1126.26437946761	1986.815113897104	232.8633146491018	1095.811687898433	1812.862386239227	317.7224746044595	1083.416240842347	1845.481928355178	316.0298379680774	1124.618938867314	1855.38937778071	342.5697194257429	1075.706604137002	2064.812269053476	1050.776807599991	1168.976540246113	1976.539190111059	160.3677570351189	1064.380165572944	1954.180715142214	197.8204559487651	1165.868780021579	1942.782550504807	1024.400202294288	1085.360103816307	1974.388520588938	377.7439044682006	1123.538446608073	1958.650062354514	396.3405937176863	1074.323101649518	2033.283417810734	434.2562302829692	1123.669907200021	2018.838325142256	449.16669167257	1074.085509419818	2224.697839753233	622.069193492216	1149.776865866831	2172.541803026615	590.6466934775711	1109.365747683634	2156.149447968261	705.583752249087	1173.896129496544	2105.317370875096	673.6169123849799	1138.339899690607	
1690	11.26	2093.952481448547	997.4307012680529	897.1876630632063	1658.538563222216	79.03057938699165	966.60184503578	1696.846162281524	89.38284461462045	926.052667874488	1682.62612115611	124.5592617489563	973.6735631994668	2043.513160341419	1066.840717529854	877.4676964488424	1876.474394806831	50.84115822243454	1026.785072597057	1845.263434143877	45.06257055056822	919.6567611797633	1933.42509271575	1033.963258216144	986.1250535300484	1786.641028991222	181.9879909053573	923.8023176397544	1749.22233859087	205.2666635293307	950.6851275252427	1819.772011271325	253.3239457451786	901.9910837758414	1785.146263563505	279.9467742228729	933.3495325117798	1973.509739074053	621.9969294754858	855.2470412409701	1916.462731539415	622.810646289498	900.8420230854463	1964.329246848165	732.1089630428388	845.1277948457913	1913.952905015642	732.9759912298844	894.0826020706108	2117.72435981882	987.2733031258792	1125.636462447522	2006.630941351926	227.0101555285487	1094.690081954267	1828.003341635161	301.652376717553	1081.168011570091	1860.369760760188	301.749500657914	1122.575413049095	1869.167836001947	328.9604490506347	1073.813651831333	2065.288658186111	1056.112242655942	1169.025836548164	2000.60646462732	154.2437125183645	1062.982425532863	1975.507074838733	190.0192189655741	1164.224600557576	1943.671810029129	1029.638392638428	1085.45270297647	1985.945200818461	370.7717575183103	1122.049344542411	1969.613732453504	388.4098605305479	1072.708052774227	2041.794232628172	430.2071216732965	1122.498997594732	2026.940261754366	444.3296772202385	1072.80932947398	2228.47343953324	630.0964743875693	1149.978721021371	2176.349858176501	597.9388279851528	1110.157091094869	2159.164308129755	712.8649942079263	1174.497921335657	2108.442501293661	680.2516705033877	1139.490012300195	
1691	11.26666666666667	2094.819782555874	1000.612457832504	897.1312523774753	1644.534511401449	86.95686156323325	967.3907771386224	1683.101775970409	95.87936243695016	926.7329698709269	1670.190566984045	131.5673588937192	974.2708824971145	2046.071635704032	1071.063526700116	877.759505983121	1860.951760215599	50.60481085598258	1027.026339131361	1829.000012738591	46.07570531674366	919.9616107056016	1934.555017313136	1038.41608508351	985.6761908677036	1773.297207388645	187.4415605631098	924.464203310083	1736.15030821561	210.7025562071123	951.7044810776297	1806.595829950315	258.7776593320594	902.8881198982564	1772.257308363683	285.3165766061188	934.6017677088485	1965.736863978105	626.4449018031447	856.1924999251078	1908.929449824842	628.8982919254515	902.1040763629773	1959.557112720805	736.7612082098515	845.8990353718426	1909.244908876058	739.1207993982193	894.9584129725912	2118.494760002172	992.6871375908378	1125.171648412954	2026.682707590997	221.1694548402747	1093.616396442671	1844.01164115191	285.215946439881	1078.69388532033	1875.95274589387	287.1246831447627	1120.337732459412	1883.662464703472	314.9213329444914	1071.732813612619	2065.658214107131	1061.476764952296	1169.058263713461	2025.055133650525	148.3812855690259	1061.726601207104	1997.143394289255	182.3042414231196	1162.61521397362	1944.622813894713	1034.897257873383	1085.483917622667	1997.724482115596	363.3661486541962	1120.443605239398	1980.862697239888	379.9995609217279	1070.973921428276	2050.285918154216	425.6291176778334	1121.228455746892	2035.159674373611	438.912369295367	1071.408310390653	2231.633081414792	637.7904460120504	1150.198617376868	2179.462126773829	604.9880397062461	1110.997285501285	2161.725373568766	719.9674618553639	1175.059984437927	2111.075893866878	686.8204367338069	1140.651831379853	
